<svg xmlns="http://www.w3.org/2000/svg" width="979.52" height="191.83" viewBox="0 0 979.52 191.83"><path d="M79.9,205.32c-46.21,0-71.64-25-71.64-65.1V97.75c0-40.14,25.43-65.11,71.64-65.11,46,0,71.64,25,71.64,65.11v42.47c0,15.16-3.51,28-10.74,38.27l12.6,15.16c4.9,5.6,4.67,9.1-1.16,14l-17,13.53c-5.37,4.67-9.1,4.43-13.77-1.17l-15.17-18A100.15,100.15,0,0,1,79.9,205.32Zm25.43-63.24V95.88c0-14.7-9.33-22.4-25.43-22.4-16.34,0-25.67,7.7-25.67,22.4v46.2c0,14.7,9.33,22.41,25.67,22.41C96,164.49,105.33,156.78,105.33,142.08Z" transform="translate(-8.26 -32.64)" fill="#fff"/><path d="M199.84,194.12,163,45.71c-1.63-6.54-.93-9.57,6.3-9.57H198c8.17,0,11.67,1.4,13.07,8.64l10.27,61.13a403.19,403.19,0,0,1,3.27,41.31h1.63c0-7,1.63-28.71,4.43-41.31l14.47-61.13c1.64-7.47,5.6-8.64,13.07-8.64h25c7.47,0,11.67,1.4,13.07,8.64l14.46,61.13c2.8,13.3,4.2,34.54,4.44,41.31H317c.24-6.54,1.64-28.47,3.5-41.31l9.81-61.13c1.4-7.24,4.9-8.64,13.3-8.64h25.9c7.23,0,7.93,3,6.3,9.57l-37.1,147.94c-1.87,6.77-5.37,8.17-11.9,8.17H299.48c-6.77,0-10.73-1.63-12.13-7.7l-12.6-54.6a225.84,225.84,0,0,1-4.44-42h-1.86a231.62,231.62,0,0,1-5.14,42l-12.6,54.13c-1.63,6.77-5.6,8.17-12.13,8.17H212C205.21,201.82,201.24,200.42,199.84,194.12Z" transform="translate(-8.26 -32.64)" fill="#fff"/><path d="M391.66,192V45.94c0-7.23,2.33-9.8,9.8-9.8h97.77c7.47,0,10,2.57,10,9.8v21c0,7.47-2.57,9.8-10,9.8h-61.6v21h49.24c7.46,0,10,2.56,10,10v20.77c0,7.47-2.57,10-10,10H437.63V161h63.7c7.24,0,9.8,2.34,9.8,9.81V192c0,7.23-2.56,9.8-9.8,9.8H401.46C394,201.82,391.66,199.25,391.66,192Z" transform="translate(-8.26 -32.64)" fill="#fff"/><path d="M529.8,192V45.94c0-7.23,2.34-9.8,9.81-9.8h66.5c35.24,0,58.11,20.07,58.11,56.24,0,22.63-9.34,39.2-25.21,48.07a60.16,60.16,0,0,1,6.3,10l21,39.91c3.26,6.3,1.63,11.43-6.07,11.43h-25.2c-12.37,0-17.51-3-21.47-11.2l-14.94-32c-4-7.93-7.93-11.9-17.5-11.9h-5.37V192c0,7.23-2.33,9.8-9.8,9.8H539.61C532.14,201.82,529.8,199.25,529.8,192Zm86.58-99.87c0-9.57-5.37-15.41-15.4-15.41H575.77v31H601C610.78,107.78,616.38,101.71,616.38,92.15Z" transform="translate(-8.26 -32.64)" fill="#fff"/><path d="M941.81,192.69v-147c0-7,2.33-9.33,9.33-9.33h27.3c7,0,9.34,2.33,9.34,9.33v147c0,7-2.34,9.34-9.34,9.34h-27.3C944.14,202,941.81,199.69,941.81,192.69Z" transform="translate(-8.26 -32.64)" fill="#fff"/><path d="M913.54,164.76c-1.14-12.65-5.35-56.39-11.39-79.22s-3.77-15.69-12.31-35.35h0c0-.07-1.18-10.6-14.93-12A39.62,39.62,0,0,0,851.44,43h0l-12.91-.26h-.76l-36.91-.07-36.91.07h-.76L750.27,43h0a39.62,39.62,0,0,0-23.47-4.81c-13.75,1.37-14.93,11.9-14.93,12h0c-8.55,19.66-6.27,12.51-12.31,35.35s-10.26,66.57-11.4,79.22S690.2,185,690.21,185h0c8.88,17.61,16.29,18.43,24,19s15.16-4.68,18.35-12.52,10.82-43.81,12.42-45.25c.87-.78,2.75-2.26,4-3.14a3.89,3.89,0,0,1,2.08-.76l28.84-1.46h41.92l28.83,1.46a3.89,3.89,0,0,1,2.09.76c1.2.88,3.08,2.36,3.95,3.14,1.6,1.44,9.23,37.41,12.42,45.25s10.6,13.07,18.35,12.52,15.15-1.37,24-19h0S914.68,177.4,913.54,164.76ZM765.92,102.61h-8.37a0,0,0,0,0,0,0V111a5.67,5.67,0,0,1-5.45,5.74,5.54,5.54,0,0,1-5.63-5.54v-8.57s0,0,0,0h-8.58a5.53,5.53,0,0,1-5.48-6.34A5.64,5.64,0,0,1,738,91.53h8.41s0,0,0,0V82.94a5.55,5.55,0,0,1,6.32-5.48,5.64,5.64,0,0,1,4.76,5.65v8.41s0,0,0,0h8.57a5.54,5.54,0,0,1,5.54,5.63A5.67,5.67,0,0,1,765.92,102.61ZM849.83,110A13.19,13.19,0,1,1,863,96.81,13.19,13.19,0,0,1,849.83,110Z" transform="translate(-8.26 -32.64)" fill="#fff"/></svg>